FFmpeg version SVN-r25716, Copyright (c) 2000-2010 the FFmpeg developers  built on Nov 10 2010 12:23:18 with gcc 4.1.2 20080704 (Red Hat 4.1.2-48)  configuration: --enable-libmp3lame --enable-shared --disable-mmx --arch=x86_64  libavutil     50.33. 0 / 50.33. 0  libavcore      0.12. 1 /  0.12. 1  libavcodec    52.94. 4 / 52.94. 4  libavformat   52.84. 0 / 52.84. 0  libavdevice   52. 2. 2 / 52. 2. 2  libavfilter    1.59. 0 /  1.59. 0  libswscale     0.12. 0 /  0.12. 0Input #0, avi, from '/RAID10/data/converted_video_files/47671.avi':  Duration: 00:00:06.40, start: 0.000000, bitrate: 188732 kb/s    Stream #0.0: Video: msvideo1, rgb555le, 1024x1024, 20 tbr, 20 tbn, 20 tbc[buffer @ 0x16d31510] w:1024 h:1024 pixfmt:rgb555le[ffsink @ 0x16d30710] auto-inserting filter 'auto-inserted scaler 0' between the filter 'src' and the filter 'out'[scale @ 0x16d2f650] w:1024 h:1024 fmt:rgb555le -> w:1024 h:1024 fmt:yuv420p flags:0x4Output #0, flv, to '/RAID10/data/converted_video_files/47671.flv':  Metadata:    encoder         : Lavf52.84.0    Stream #0.0: Video: flv, yuv420p, 1024x1024, q=2-31, 600 kb/s, 1k tbn, 24 tbcStream mapping:  Stream #0.0 -> #0.0Press [q] to stop encodingframe=    7 fps=  0 q=6.3 size=     598kB time=0.33 bitrate=14660.1kbits/s    frame=   17 fps= 14 q=31.0 size=     613kB time=0.83 bitrate=6026.0kbits/s    frame=   25 fps= 14 q=31.0 size=     643kB time=1.25 bitrate=4216.8kbits/s    frame=   35 fps= 16 q=31.0 size=     676kB time=1.75 bitrate=3164.1kbits/s    frame=   45 fps= 16 q=31.0 size=     707kB time=2.25 bitrate=2575.4kbits/s    frame=   54 fps= 17 q=24.8 size=     738kB time=2.71 bitrate=2232.7kbits/s    frame=   64 fps= 17 q=31.0 size=     744kB time=3.21 bitrate=1898.6kbits/s    frame=   74 fps= 17 q=31.0 size=     776kB time=3.71 bitrate=1713.6kbits/s    frame=   85 fps= 18 q=31.0 size=     808kB time=4.25 bitrate=1557.3kbits/s    frame=   95 fps= 17 q=31.0 size=     840kB time=4.75 bitrate=1448.8kbits/s    frame=  101 fps= 17 q=31.0 size=     843kB time=5.04 bitrate=1370.3kbits/s    frame=  112 fps= 18 q=31.0 size=     875kB time=5.58 bitrate=1284.2kbits/s    frame=  122 fps= 18 q=31.0 size=     907kB time=6.08 bitrate=1221.9kbits/s    frame=  128 fps= 18 q=31.0 Lsize=     937kB time=6.37 bitrate=1203.9kbits/s    video:935kB audio:0kB global headers:0kB muxing overhead 0.235958%